<svg width="430" height="251" viewBox="0 0 430 251" fill="none" xmlns="http://www.w3.org/2000/svg">
<g clip-path="url(#clip0_120_1201)">
<path d="M-7 8.99854H461V265.999C461 277.044 452.046 285.999 441 285.999H13C1.9543 285.999 -7 277.044 -7 265.999V8.99854Z" fill="url(#paint0_linear_120_1201)"/>
<path opacity="0.7" d="M-25.7663 316.698C-88.5428 273.771 -2.36373 188.098 45.2614 176.491C92.8864 164.883 138.302 208.838 146.699 274.665C155.097 340.492 123.297 403.266 75.6717 414.873C28.0466 426.48 37.0102 359.626 -25.7663 316.698Z" fill="#8C8C8C"/>
<path d="M605.983 180.674C704.119 225.593 590.89 375.284 523.005 405.771C455.12 436.258 382.208 384.909 360.151 291.078C338.093 197.248 386.142 126.987 446.422 92.3637C506.702 57.7409 507.848 135.754 605.983 180.674Z" fill="#03A9F4"/>
<path opacity="0.7" d="M429.72 196.981C471.206 118.983 517.283 251.168 517.283 318.011C517.283 384.854 478.08 439.04 429.72 439.04C381.36 439.04 342.157 384.854 342.157 318.011C342.157 251.168 388.233 274.978 429.72 196.981Z" fill="#FFD471"/>
</g>
<defs>
<linearGradient id="paint0_linear_120_1201" x1="227" y1="8.99854" x2="227.959" y2="330.875" gradientUnits="userSpaceOnUse">
<stop stop-color="#248ECF"/>
<stop offset="1" stop-color="#50606F"/>
</linearGradient>
<clipPath id="clip0_120_1201">
<path d="M0 -0.00146484H430V256.999C430 284.613 407.614 306.999 380 306.999H50C22.3858 306.999 0 284.613 0 256.999V-0.00146484Z" fill="white"/>
</clipPath>
</defs>
</svg>
