<svg width="161" height="155" viewBox="0 0 161 155" fill="none" xmlns="http://www.w3.org/2000/svg">
<rect x="13" y="6" width="82" height="82" rx="41" fill="#45D8FB"/>
<circle cx="45.3154" cy="51.9071" r="7.55558" transform="rotate(-165 45.3154 51.9071)" stroke="white" stroke-width="5"/>
<path d="M53.552 46.5529L75.9164 33.7323" stroke="white" stroke-width="5" stroke-linecap="round"/>
<path d="M72.0193 35.9824L74.5193 40.3125" stroke="white" stroke-width="5" stroke-linecap="round"/>
<path d="M64.658 40.2324L67.158 44.5625" stroke="white" stroke-width="5" stroke-linecap="round"/>
<rect opacity="0.5" x="5" y="3" width="42" height="42" rx="21" fill="#4C407B"/>
<rect width="42" height="42" rx="21" fill="#69687F"/>
<path d="M18.9199 23.2637V22.541C18.9199 22.0983 18.9818 21.7077 19.1055 21.3691C19.2292 21.0241 19.4277 20.6986 19.7012 20.3926C19.9746 20.0801 20.3359 19.7611 20.7852 19.4355C21.1888 19.1491 21.5111 18.8919 21.752 18.6641C21.9993 18.4362 22.1784 18.2116 22.2891 17.9902C22.4062 17.7624 22.4648 17.5052 22.4648 17.2188C22.4648 16.7956 22.3086 16.4733 21.9961 16.252C21.6836 16.0306 21.2474 15.9199 20.6875 15.9199C20.1276 15.9199 19.571 16.0078 19.0176 16.1836C18.4707 16.3594 17.9141 16.5905 17.3477 16.877L16.2832 14.7383C16.9342 14.3737 17.6406 14.0807 18.4023 13.8594C19.1641 13.6315 19.9974 13.5176 20.9023 13.5176C22.2956 13.5176 23.373 13.8529 24.1348 14.5234C24.903 15.1875 25.2871 16.0339 25.2871 17.0625C25.2871 17.6094 25.1992 18.0846 25.0234 18.4883C24.8542 18.8854 24.5938 19.2565 24.2422 19.6016C23.8971 19.9401 23.4642 20.2982 22.9434 20.6758C22.5527 20.9622 22.2533 21.2031 22.0449 21.3984C21.8366 21.5938 21.6934 21.7891 21.6152 21.9844C21.5436 22.1732 21.5078 22.4043 21.5078 22.6777V23.2637H18.9199ZM18.6074 26.6035C18.6074 25.9915 18.7734 25.5618 19.1055 25.3145C19.444 25.0671 19.8509 24.9434 20.3262 24.9434C20.7884 24.9434 21.1855 25.0671 21.5176 25.3145C21.8561 25.5618 22.0254 25.9915 22.0254 26.6035C22.0254 27.1895 21.8561 27.6126 21.5176 27.873C21.1855 28.1335 20.7884 28.2637 20.3262 28.2637C19.8509 28.2637 19.444 28.1335 19.1055 27.873C18.7734 27.6126 18.6074 27.1895 18.6074 26.6035Z" fill="white"/>
<path d="M148.213 142.34L148.433 137.329C150.73 136.087 153.291 135.431 155.896 135.418C152.311 138.382 152.759 144.096 150.329 148.082C149.562 149.319 148.529 150.366 147.308 151.145C146.086 151.923 144.707 152.414 143.272 152.58L140.273 154.438C139.861 152.117 139.952 149.733 140.539 147.452C141.126 145.17 142.194 143.043 143.672 141.22C144.511 140.205 145.472 139.301 146.535 138.529C147.253 140.445 148.213 142.34 148.213 142.34Z" fill="#E6E6E6"/>
<path d="M140.484 151.859L137.768 151.859L136.476 141.263L140.485 141.263L140.484 151.859Z" fill="#FFB6B6"/>
<path d="M141.177 154.522L132.42 154.522V154.41C132.42 153.495 132.779 152.618 133.418 151.972C134.057 151.325 134.924 150.962 135.828 150.962H135.828L137.428 149.734L140.413 150.962L141.177 150.962L141.177 154.522Z" fill="#2F2E41"/>
<path d="M127.867 151.859L125.151 151.859L123.859 141.263L127.867 141.263L127.867 151.859Z" fill="#FFB6B6"/>
<path d="M128.559 154.522L119.802 154.522V154.41C119.802 153.495 120.161 152.618 120.8 151.972C121.44 151.325 122.307 150.962 123.211 150.962H123.211L124.81 149.734L127.795 150.962L128.559 150.962L128.559 154.522Z" fill="#2F2E41"/>
<path d="M126.691 93.9291L144.357 94.3759C147.712 96.2191 147.763 100.209 146.663 104.945C146.663 104.945 147.035 107.761 146.292 108.511C145.55 109.262 145.179 109.262 145.55 110.576C145.921 111.89 143.96 114.035 144.199 114.276C144.437 114.517 144.993 115.831 144.993 115.831L143.138 126.529C143.138 126.529 141.839 145.11 141.468 145.486C141.097 145.861 140.726 145.486 141.097 146.424C141.468 147.363 141.839 146.987 141.468 147.363C141.139 147.721 140.829 148.097 140.54 148.489H136.054C136.054 148.489 135.716 146.612 135.716 146.424C135.716 146.236 135.345 145.11 135.345 144.923C135.345 144.735 135.673 144.403 135.673 144.403C135.786 144.022 135.862 143.63 135.901 143.233C135.901 142.858 137.015 128.406 137.015 128.406L134.788 109.637L129.407 128.031C129.407 128.031 129.407 144.172 129.036 144.547C128.665 144.923 128.665 144.735 128.85 145.486C129.036 146.236 129.778 146.049 129.221 146.612C128.665 147.175 128.479 146.236 128.665 147.175L128.85 148.113L123.283 148.194C123.283 148.194 122.541 146.612 122.912 146.049C123.284 145.486 123.261 145.639 122.808 144.718C122.356 143.796 122.17 143.609 122.356 143.421C122.541 143.233 122.541 142.235 122.541 142.235L123.469 124.277C123.469 124.277 123.655 105.321 123.655 104.758C123.669 104.468 123.616 104.179 123.5 103.913V103.149L124.211 100.441L126.691 93.9291Z" fill="#69687F"/>
<path d="M137.303 56.774C140.334 56.774 142.792 54.2883 142.792 51.2221C142.792 48.1558 140.334 45.6702 137.303 45.6702C134.272 45.6702 131.814 48.1558 131.814 51.2221C131.814 54.2883 134.272 56.774 137.303 56.774Z" fill="#FFB6B6"/>
<path d="M134.559 60.4434C133.376 61.1545 132.669 62.461 132.263 63.7905C131.511 66.2519 131.058 68.7967 130.915 71.3688L130.486 79.0691L125.175 95.4654C129.778 99.4054 147.082 96.3608 147.082 96.3608C147.082 96.3608 147.613 96.1817 147.082 95.6444C146.551 95.1072 146.034 95.5832 146.565 95.0459C147.096 94.5086 146.73 95.1072 146.553 94.5699C146.376 94.0326 146.553 94.3908 146.73 94.2117C146.907 94.0326 145.359 92.4207 145.359 92.4207L146.776 83.0092L148.546 64.0253C146.422 61.3389 142.148 59.7553 142.148 59.7553L141.044 57.745L135.524 58.1918L134.559 60.4434Z" fill="#45D8FB"/>
<path d="M133.806 47.9638C134.018 47.9655 134.23 47.9935 134.435 48.0473C134.841 48.1459 135.252 48.2157 135.667 48.2563C136.938 48.3772 138.132 48.9253 139.058 49.8131C139.985 50.7009 140.591 51.8772 140.779 53.154C141.098 52.8728 141.823 52.3554 142.418 52.8362C142.427 52.8439 142.433 52.8478 142.454 52.8378C142.849 52.6482 143.55 50.3149 143.571 48.2606C143.582 47.1702 143.413 45.7778 142.541 45.3368L142.495 45.3136L142.483 45.2631C142.425 45.0178 141.774 44.5991 140.643 44.2733C138.587 43.6811 135.523 42.5274 133.798 44.2252C133.667 44.7975 133.242 46.0224 132.813 46.1612C132.338 46.3149 131.928 46.4475 131.863 47.0371C131.809 47.8761 131.813 48.7179 131.875 49.5564C132.036 49.0433 132.352 48.5943 132.778 48.2724C133.082 48.0659 133.44 47.9582 133.806 47.9638Z" fill="#2F2E41"/>
<path d="M123.589 78.6405L132.555 72.8324L128.04 66.7603L123.58 72.3086L109.687 73.1705C109.321 72.8051 108.859 72.5552 108.355 72.4511C107.852 72.3471 107.329 72.3935 106.851 72.5846C106.374 72.7758 105.961 73.1034 105.664 73.5276C105.367 73.9518 105.199 74.4542 105.179 74.9736C105.16 75.493 105.29 76.0069 105.554 76.4526C105.819 76.8984 106.205 77.2567 106.667 77.484C107.13 77.7112 107.647 77.7976 108.157 77.7325C108.667 77.6674 109.147 77.4537 109.539 77.1174L123.589 78.6405Z" fill="#FFB6B6"/>
<path d="M140.877 64.7254C141.398 67.9109 131.571 73.9938 131.571 73.9938C131.571 73.2461 125.705 78.8906 125.441 78.2705C124.688 76.5081 124.159 72.3339 123.108 71.6657C122.506 71.2837 126.729 67.6943 126.729 67.6943C126.729 67.6943 128.939 65.442 131.84 62.601C132.645 61.7825 133.642 61.1833 134.738 60.8593C135.834 60.5353 136.993 60.497 138.107 60.748C138.107 60.748 140.357 61.54 140.877 64.7254Z" fill="#45D8FB"/>
<path d="M159.357 80.165L153.427 71.221L147.521 75.9163L153.099 80.3082L154.245 94.3403C153.892 94.7176 153.655 95.1907 153.562 95.702C153.47 96.2133 153.527 96.7407 153.726 97.2199C153.925 97.6991 154.258 98.1093 154.683 98.4006C155.109 98.6919 155.609 98.8516 156.123 98.8603C156.637 98.869 157.142 98.7264 157.577 98.4497C158.012 98.173 158.358 97.7743 158.573 97.3022C158.788 96.8301 158.862 96.3049 158.787 95.7908C158.712 95.2766 158.49 94.7957 158.15 94.4066L159.357 80.165Z" fill="#FFB6B6"/>
<path d="M145.238 62.9773C148.375 62.3836 154.596 72.1925 154.596 72.1925C153.857 72.2084 159.56 78.0202 158.953 78.3011C157.227 79.0993 153.112 79.7227 152.474 80.8001C152.109 81.4162 148.472 77.2221 148.472 77.2221C148.472 77.2221 146.199 75.0346 143.329 72.1615C142.503 71.3644 141.89 70.3689 141.546 69.2676C141.203 68.1663 141.141 66.995 141.365 65.8628C141.365 65.8628 142.1 63.5709 145.238 62.9773Z" fill="#45D8FB"/>
<path d="M160.873 154.566C160.873 154.601 160.866 154.636 160.853 154.668C160.84 154.7 160.82 154.73 160.796 154.754C160.771 154.779 160.742 154.799 160.71 154.812C160.679 154.825 160.644 154.832 160.61 154.832H98.7161C98.6465 154.832 98.5796 154.804 98.5303 154.754C98.481 154.704 98.4534 154.637 98.4534 154.566C98.4534 154.496 98.481 154.428 98.5303 154.378C98.5796 154.328 98.6465 154.3 98.7161 154.3H160.61C160.644 154.3 160.679 154.307 160.71 154.32C160.742 154.334 160.771 154.353 160.796 154.378C160.82 154.403 160.84 154.432 160.853 154.464C160.866 154.497 160.873 154.531 160.873 154.566Z" fill="#130160"/>
</svg>
